{
    "asset" : {
        "generator" : "Khronos glTF Blender I/O v1.2.75",
        "version" : "2.0"
    },
    "scene" : 0,
    "scenes" : [
        {
            "name" : "Scene",
            "nodes" : [
                0
            ]
        }
    ],
    "nodes" : [
        {
            "mesh" : 0,
            "name" : "Cylinder"
        }
    ],
    "materials" : [
        {
            "doubleSided" : true,
            "emissiveFactor" : [
                0,
                0,
                0
            ],
            "name" : "Material",
            "pbrMetallicRoughness" : {
                "baseColorTexture" : {
                    "index" : 0,
                    "texCoord" : 0
                },
                "metallicFactor" : 0,
                "roughnessFactor" : 0.5
            }
        }
    ],
    "meshes" : [
        {
            "name" : "Cylinder",
            "primitives" : [
                {
                    "attributes" : {
                        "POSITION" : 0,
                        "NORMAL" : 1,
                        "TEXCOORD_0" : 2
                    },
                    "indices" : 3,
                    "material" : 0
                }
            ]
        }
    ],
    "textures" : [
        {
            "source" : 0
        }
    ],
    "images" : [
        {
            "bufferView" : 4,
            "mimeType" : "image/png",
            "name" : "colortex"
        }
    ],
    "accessors" : [
        {
            "bufferView" : 0,
            "componentType" : 5126,
            "count" : 884,
            "max" : [
                0.10696487128734589,
                0.00706904660910368,
                0.006851413752883673
            ],
            "min" : [
                -0.10125289112329483,
                -0.007546866312623024,
                -0.006846958305686712
            ],
            "type" : "VEC3"
        },
        {
            "bufferView" : 1,
            "componentType" : 5126,
            "count" : 884,
            "type" : "VEC3"
        },
        {
            "bufferView" : 2,
            "componentType" : 5126,
            "count" : 884,
            "type" : "VEC2"
        },
        {
            "bufferView" : 3,
            "componentType" : 5123,
            "count" : 1335,
            "type" : "SCALAR"
        }
    ],
    "bufferViews" : [
        {
            "buffer" : 0,
            "byteLength" : 10608,
            "byteOffset" : 0
        },
        {
            "buffer" : 0,
            "byteLength" : 10608,
            "byteOffset" : 10608
        },
        {
            "buffer" : 0,
            "byteLength" : 7072,
            "byteOffset" : 21216
        },
        {
            "buffer" : 0,
            "byteLength" : 2670,
            "byteOffset" : 28288
        },
        {
            "buffer" : 0,
            "byteLength" : 265,
            "byteOffset" : 30960
        }
    ],
    "buffers" : [
        {
            "byteLength" : 31228,
            "uri" : "data:application/octet-stream;base64,"
        }
    ]
}
