{
    "asset" : {
        "generator" : "Khronos glTF Blender I/O v1.2.75",
        "version" : "2.0"
    },
    "scene" : 0,
    "scenes" : [
        {
            "name" : "Scene",
            "nodes" : [
                0
            ]
        }
    ],
    "nodes" : [
        {
            "mesh" : 0,
            "name" : "Cylinder.001"
        }
    ],
    "materials" : [
        {
            "emissiveFactor" : [
                0,
                0,
                0
            ],
            "name" : "Material",
            "pbrMetallicRoughness" : {
                "baseColorTexture" : {
                    "index" : 0,
                    "texCoord" : 0
                },
                "metallicFactor" : 0,
                "roughnessFactor" : 0.5
            }
        }
    ],
    "meshes" : [
        {
            "name" : "Cylinder.001",
            "primitives" : [
                {
                    "attributes" : {
                        "POSITION" : 0,
                        "NORMAL" : 1,
                        "TEXCOORD_0" : 2
                    },
                    "indices" : 3,
                    "material" : 0
                }
            ]
        }
    ],
    "textures" : [
        {
            "source" : 0
        }
    ],
    "images" : [
        {
            "bufferView" : 4,
            "mimeType" : "image/png",
            "name" : "colortex"
        }
    ],
    "accessors" : [
        {
            "bufferView" : 0,
            "componentType" : 5126,
            "count" : 1060,
            "max" : [
                0.06770884990692139,
                0.0068438188172876835,
                0.04386867582798004
            ],
            "min" : [
                -0.0443623848259449,
                -0.00788583792746067,
                -0.04914858937263489
            ],
            "type" : "VEC3"
        },
        {
            "bufferView" : 1,
            "componentType" : 5126,
            "count" : 1060,
            "type" : "VEC3"
        },
        {
            "bufferView" : 2,
            "componentType" : 5126,
            "count" : 1060,
            "type" : "VEC2"
        },
        {
            "bufferView" : 3,
            "componentType" : 5123,
            "count" : 1596,
            "type" : "SCALAR"
        }
    ],
    "bufferViews" : [
        {
            "buffer" : 0,
            "byteLength" : 12720,
            "byteOffset" : 0
        },
        {
            "buffer" : 0,
            "byteLength" : 12720,
            "byteOffset" : 12720
        },
        {
            "buffer" : 0,
            "byteLength" : 8480,
            "byteOffset" : 25440
        },
        {
            "buffer" : 0,
            "byteLength" : 3192,
            "byteOffset" : 33920
        },
        {
            "buffer" : 0,
            "byteLength" : 265,
            "byteOffset" : 37112
        }
    ],
    "buffers" : [
        {
            "byteLength" : 37380,
            "uri" : "data:application/octet-stream;base64,"
        }
    ]
}
