{
    "asset" : {
        "generator" : "Khronos glTF Blender I/O v1.2.75",
        "version" : "2.0"
    },
    "scene" : 0,
    "scenes" : [
        {
            "name" : "Scene",
            "nodes" : [
                0
            ]
        }
    ],
    "nodes" : [
        {
            "mesh" : 0,
            "name" : "Cube.001"
        }
    ],
    "materials" : [
        {
            "emissiveFactor" : [
                0,
                0,
                0
            ],
            "name" : "Material.001",
            "pbrMetallicRoughness" : {
                "baseColorTexture" : {
                    "index" : 0,
                    "texCoord" : 0
                },
                "metallicFactor" : 0,
                "roughnessFactor" : 0.5
            }
        }
    ],
    "meshes" : [
        {
            "name" : "Cube.001",
            "primitives" : [
                {
                    "attributes" : {
                        "POSITION" : 0,
                        "NORMAL" : 1,
                        "TEXCOORD_0" : 2
                    },
                    "indices" : 3,
                    "material" : 0
                }
            ]
        }
    ],
    "textures" : [
        {
            "source" : 0
        }
    ],
    "images" : [
        {
            "bufferView" : 4,
            "mimeType" : "image/png",
            "name" : "colortex"
        }
    ],
    "accessors" : [
        {
            "bufferView" : 0,
            "componentType" : 5126,
            "count" : 518,
            "max" : [
                0.07373224198818207,
                0.006628136616200209,
                0.056333281099796295
            ],
            "min" : [
                -0.08153671026229858,
                -0.004472083877772093,
                -0.05555051937699318
            ],
            "type" : "VEC3"
        },
        {
            "bufferView" : 1,
            "componentType" : 5126,
            "count" : 518,
            "type" : "VEC3"
        },
        {
            "bufferView" : 2,
            "componentType" : 5126,
            "count" : 518,
            "type" : "VEC2"
        },
        {
            "bufferView" : 3,
            "componentType" : 5123,
            "count" : 756,
            "type" : "SCALAR"
        }
    ],
    "bufferViews" : [
        {
            "buffer" : 0,
            "byteLength" : 6216,
            "byteOffset" : 0
        },
        {
            "buffer" : 0,
            "byteLength" : 6216,
            "byteOffset" : 6216
        },
        {
            "buffer" : 0,
            "byteLength" : 4144,
            "byteOffset" : 12432
        },
        {
            "buffer" : 0,
            "byteLength" : 1512,
            "byteOffset" : 16576
        },
        {
            "buffer" : 0,
            "byteLength" : 265,
            "byteOffset" : 18088
        }
    ],
    "buffers" : [
        {
            "byteLength" : 18356,
            "uri" : "data:application/octet-stream;base64,"
        }
    ]
}
