{
    "asset" : {
        "generator" : "Khronos glTF Blender I/O v1.2.75",
        "version" : "2.0"
    },
    "scene" : 0,
    "scenes" : [
        {
            "name" : "Scene",
            "nodes" : [
                0
            ]
        }
    ],
    "nodes" : [
        {
            "mesh" : 0,
            "name" : "Cylinder"
        }
    ],
    "materials" : [
        {
            "emissiveFactor" : [
                0,
                0,
                0
            ],
            "name" : "Material.001",
            "pbrMetallicRoughness" : {
                "baseColorTexture" : {
                    "index" : 0,
                    "texCoord" : 0
                },
                "metallicFactor" : 0,
                "roughnessFactor" : 0.5
            }
        }
    ],
    "meshes" : [
        {
            "name" : "Cylinder.002",
            "primitives" : [
                {
                    "attributes" : {
                        "POSITION" : 0,
                        "NORMAL" : 1,
                        "TEXCOORD_0" : 2
                    },
                    "indices" : 3,
                    "material" : 0
                }
            ]
        }
    ],
    "textures" : [
        {
            "source" : 0
        }
    ],
    "images" : [
        {
            "bufferView" : 4,
            "mimeType" : "image/png",
            "name" : "colortex"
        }
    ],
    "accessors" : [
        {
            "bufferView" : 0,
            "componentType" : 5126,
            "count" : 387,
            "max" : [
                0.07622165977954865,
                0.03908555954694748,
                0.09266749024391174
            ],
            "min" : [
                -0.06767848134040833,
                -0.05380567908287048,
                -0.0931149572134018
            ],
            "type" : "VEC3"
        },
        {
            "bufferView" : 1,
            "componentType" : 5126,
            "count" : 387,
            "type" : "VEC3"
        },
        {
            "bufferView" : 2,
            "componentType" : 5126,
            "count" : 387,
            "type" : "VEC2"
        },
        {
            "bufferView" : 3,
            "componentType" : 5123,
            "count" : 579,
            "type" : "SCALAR"
        }
    ],
    "bufferViews" : [
        {
            "buffer" : 0,
            "byteLength" : 4644,
            "byteOffset" : 0
        },
        {
            "buffer" : 0,
            "byteLength" : 4644,
            "byteOffset" : 4644
        },
        {
            "buffer" : 0,
            "byteLength" : 3096,
            "byteOffset" : 9288
        },
        {
            "buffer" : 0,
            "byteLength" : 1158,
            "byteOffset" : 12384
        },
        {
            "buffer" : 0,
            "byteLength" : 265,
            "byteOffset" : 13544
        }
    ],
    "buffers" : [
        {
            "byteLength" : 13812,
            "uri" : "data:application/octet-stream;base64,"
        }
    ]
}
