{
    "asset" : {
        "generator" : "Khronos glTF Blender I/O v1.2.75",
        "version" : "2.0"
    },
    "scene" : 0,
    "scenes" : [
        {
            "name" : "Scene",
            "nodes" : [
                0
            ]
        }
    ],
    "nodes" : [
        {
            "mesh" : 0,
            "name" : "Cylinder"
        }
    ],
    "materials" : [
        {
            "doubleSided" : true,
            "emissiveFactor" : [
                0,
                0,
                0
            ],
            "name" : "Material.001",
            "pbrMetallicRoughness" : {
                "baseColorTexture" : {
                    "index" : 0,
                    "texCoord" : 0
                },
                "metallicFactor" : 0,
                "roughnessFactor" : 0.5
            }
        }
    ],
    "meshes" : [
        {
            "name" : "Cylinder",
            "primitives" : [
                {
                    "attributes" : {
                        "POSITION" : 0,
                        "NORMAL" : 1,
                        "TEXCOORD_0" : 2
                    },
                    "indices" : 3,
                    "material" : 0
                }
            ]
        }
    ],
    "textures" : [
        {
            "source" : 0
        }
    ],
    "images" : [
        {
            "bufferView" : 4,
            "mimeType" : "image/png",
            "name" : "colortex"
        }
    ],
    "accessors" : [
        {
            "bufferView" : 0,
            "componentType" : 5126,
            "count" : 374,
            "max" : [
                0.02465634047985077,
                0.023699916899204254,
                0.1496925801038742
            ],
            "min" : [
                -0.025133658200502396,
                -0.026540542021393776,
                -0.10841022431850433
            ],
            "type" : "VEC3"
        },
        {
            "bufferView" : 1,
            "componentType" : 5126,
            "count" : 374,
            "type" : "VEC3"
        },
        {
            "bufferView" : 2,
            "componentType" : 5126,
            "count" : 374,
            "type" : "VEC2"
        },
        {
            "bufferView" : 3,
            "componentType" : 5123,
            "count" : 564,
            "type" : "SCALAR"
        }
    ],
    "bufferViews" : [
        {
            "buffer" : 0,
            "byteLength" : 4488,
            "byteOffset" : 0
        },
        {
            "buffer" : 0,
            "byteLength" : 4488,
            "byteOffset" : 4488
        },
        {
            "buffer" : 0,
            "byteLength" : 2992,
            "byteOffset" : 8976
        },
        {
            "buffer" : 0,
            "byteLength" : 1128,
            "byteOffset" : 11968
        },
        {
            "buffer" : 0,
            "byteLength" : 265,
            "byteOffset" : 13096
        }
    ],
    "buffers" : [
        {
            "byteLength" : 13364,
            "uri" : "data:application/octet-stream;base64,"
        }
    ]
}
