{
    "asset" : {
        "generator" : "Khronos glTF Blender I/O v1.2.75",
        "version" : "2.0"
    },
    "scene" : 0,
    "scenes" : [
        {
            "name" : "Scene",
            "nodes" : [
                0
            ]
        }
    ],
    "nodes" : [
        {
            "mesh" : 0,
            "name" : "Cylinder.002"
        }
    ],
    "materials" : [
        {
            "emissiveFactor" : [
                0,
                0,
                0
            ],
            "name" : "Material.001",
            "pbrMetallicRoughness" : {
                "baseColorTexture" : {
                    "index" : 0,
                    "texCoord" : 0
                },
                "metallicFactor" : 0,
                "roughnessFactor" : 0.5
            }
        }
    ],
    "meshes" : [
        {
            "name" : "Cylinder.002",
            "primitives" : [
                {
                    "attributes" : {
                        "POSITION" : 0,
                        "NORMAL" : 1,
                        "TEXCOORD_0" : 2
                    },
                    "indices" : 3,
                    "material" : 0
                }
            ]
        }
    ],
    "textures" : [
        {
            "source" : 0
        }
    ],
    "images" : [
        {
            "bufferView" : 4,
            "mimeType" : "image/png",
            "name" : "colortex"
        }
    ],
    "accessors" : [
        {
            "bufferView" : 0,
            "componentType" : 5126,
            "count" : 1784,
            "max" : [
                0.024977531284093857,
                0.013791177421808243,
                0.13086922466754913
            ],
            "min" : [
                -0.021746300160884857,
                -0.004446309059858322,
                -0.1538119614124298
            ],
            "type" : "VEC3"
        },
        {
            "bufferView" : 1,
            "componentType" : 5126,
            "count" : 1784,
            "type" : "VEC3"
        },
        {
            "bufferView" : 2,
            "componentType" : 5126,
            "count" : 1784,
            "type" : "VEC2"
        },
        {
            "bufferView" : 3,
            "componentType" : 5123,
            "count" : 2640,
            "type" : "SCALAR"
        }
    ],
    "bufferViews" : [
        {
            "buffer" : 0,
            "byteLength" : 21408,
            "byteOffset" : 0
        },
        {
            "buffer" : 0,
            "byteLength" : 21408,
            "byteOffset" : 21408
        },
        {
            "buffer" : 0,
            "byteLength" : 14272,
            "byteOffset" : 42816
        },
        {
            "buffer" : 0,
            "byteLength" : 5280,
            "byteOffset" : 57088
        },
        {
            "buffer" : 0,
            "byteLength" : 265,
            "byteOffset" : 62368
        }
    ],
    "buffers" : [
        {
            "byteLength" : 62636,
            "uri" : "data:application/octet-stream;base64,"
        }
    ]
}
