{
    "asset" : {
        "generator" : "Khronos glTF Blender I/O v1.2.75",
        "version" : "2.0"
    },
    "scene" : 0,
    "scenes" : [
        {
            "name" : "Scene",
            "nodes" : [
                0
            ]
        }
    ],
    "nodes" : [
        {
            "mesh" : 0,
            "name" : "Cylinder.001"
        }
    ],
    "materials" : [
        {
            "emissiveFactor" : [
                0,
                0,
                0
            ],
            "name" : "Material",
            "pbrMetallicRoughness" : {
                "baseColorTexture" : {
                    "index" : 0,
                    "texCoord" : 0
                },
                "metallicFactor" : 0,
                "roughnessFactor" : 0.5
            }
        }
    ],
    "meshes" : [
        {
            "name" : "Cylinder",
            "primitives" : [
                {
                    "attributes" : {
                        "POSITION" : 0,
                        "NORMAL" : 1,
                        "TEXCOORD_0" : 2
                    },
                    "indices" : 3,
                    "material" : 0
                }
            ]
        }
    ],
    "textures" : [
        {
            "source" : 0
        }
    ],
    "images" : [
        {
            "bufferView" : 4,
            "mimeType" : "image/png",
            "name" : "colortex"
        }
    ],
    "accessors" : [
        {
            "bufferView" : 0,
            "componentType" : 5126,
            "count" : 839,
            "max" : [
                0.03455734625458717,
                0.21054276823997498,
                0.030209187418222427
            ],
            "min" : [
                -0.03651753067970276,
                -0.19057950377464294,
                -0.031311094760894775
            ],
            "type" : "VEC3"
        },
        {
            "bufferView" : 1,
            "componentType" : 5126,
            "count" : 839,
            "type" : "VEC3"
        },
        {
            "bufferView" : 2,
            "componentType" : 5126,
            "count" : 839,
            "type" : "VEC2"
        },
        {
            "bufferView" : 3,
            "componentType" : 5123,
            "count" : 1248,
            "type" : "SCALAR"
        }
    ],
    "bufferViews" : [
        {
            "buffer" : 0,
            "byteLength" : 10068,
            "byteOffset" : 0
        },
        {
            "buffer" : 0,
            "byteLength" : 10068,
            "byteOffset" : 10068
        },
        {
            "buffer" : 0,
            "byteLength" : 6712,
            "byteOffset" : 20136
        },
        {
            "buffer" : 0,
            "byteLength" : 2496,
            "byteOffset" : 26848
        },
        {
            "buffer" : 0,
            "byteLength" : 265,
            "byteOffset" : 29344
        }
    ],
    "buffers" : [
        {
            "byteLength" : 29612,
            "uri" : "data:application/octet-stream;base64,"
        }
    ]
}
