{
    "asset" : {
        "generator" : "Khronos glTF Blender I/O v1.2.75",
        "version" : "2.0"
    },
    "scene" : 0,
    "scenes" : [
        {
            "name" : "Scene",
            "nodes" : [
                0
            ]
        }
    ],
    "nodes" : [
        {
            "mesh" : 0,
            "name" : "Cylinder.001"
        }
    ],
    "materials" : [
        {
            "emissiveFactor" : [
                0,
                0,
                0
            ],
            "name" : "Material.001",
            "pbrMetallicRoughness" : {
                "baseColorTexture" : {
                    "index" : 0,
                    "texCoord" : 0
                },
                "metallicFactor" : 0,
                "roughnessFactor" : 0.5
            }
        }
    ],
    "meshes" : [
        {
            "name" : "Cylinder",
            "primitives" : [
                {
                    "attributes" : {
                        "POSITION" : 0,
                        "NORMAL" : 1,
                        "TEXCOORD_0" : 2
                    },
                    "indices" : 3,
                    "material" : 0
                }
            ]
        }
    ],
    "textures" : [
        {
            "source" : 0
        }
    ],
    "images" : [
        {
            "bufferView" : 4,
            "mimeType" : "image/png",
            "name" : "colortex"
        }
    ],
    "accessors" : [
        {
            "bufferView" : 0,
            "componentType" : 5126,
            "count" : 578,
            "max" : [
                0.03650645911693573,
                0.07669472694396973,
                0.03470347821712494
            ],
            "min" : [
                -0.03448634594678879,
                -0.06272387504577637,
                -0.04232517629861832
            ],
            "type" : "VEC3"
        },
        {
            "bufferView" : 1,
            "componentType" : 5126,
            "count" : 578,
            "type" : "VEC3"
        },
        {
            "bufferView" : 2,
            "componentType" : 5126,
            "count" : 578,
            "type" : "VEC2"
        },
        {
            "bufferView" : 3,
            "componentType" : 5123,
            "count" : 870,
            "type" : "SCALAR"
        }
    ],
    "bufferViews" : [
        {
            "buffer" : 0,
            "byteLength" : 6936,
            "byteOffset" : 0
        },
        {
            "buffer" : 0,
            "byteLength" : 6936,
            "byteOffset" : 6936
        },
        {
            "buffer" : 0,
            "byteLength" : 4624,
            "byteOffset" : 13872
        },
        {
            "buffer" : 0,
            "byteLength" : 1740,
            "byteOffset" : 18496
        },
        {
            "buffer" : 0,
            "byteLength" : 265,
            "byteOffset" : 20236
        }
    ],
    "buffers" : [
        {
            "byteLength" : 20504,
            "uri" : "data:application/octet-stream;base64,"
        }
    ]
}
