{
    "asset" : {
        "generator" : "Khronos glTF Blender I/O v1.2.75",
        "version" : "2.0"
    },
    "scene" : 0,
    "scenes" : [
        {
            "name" : "Scene",
            "nodes" : [
                0
            ]
        }
    ],
    "nodes" : [
        {
            "mesh" : 0,
            "name" : "Cylinder"
        }
    ],
    "materials" : [
        {
            "doubleSided" : true,
            "emissiveFactor" : [
                0,
                0,
                0
            ],
            "name" : "Material",
            "pbrMetallicRoughness" : {
                "baseColorTexture" : {
                    "index" : 0,
                    "texCoord" : 0
                },
                "metallicFactor" : 0,
                "roughnessFactor" : 0.5
            }
        }
    ],
    "meshes" : [
        {
            "name" : "Cylinder",
            "primitives" : [
                {
                    "attributes" : {
                        "POSITION" : 0,
                        "NORMAL" : 1,
                        "TEXCOORD_0" : 2
                    },
                    "indices" : 3,
                    "material" : 0
                }
            ]
        }
    ],
    "textures" : [
        {
            "source" : 0
        }
    ],
    "images" : [
        {
            "bufferView" : 4,
            "mimeType" : "image/png",
            "name" : "colortex"
        }
    ],
    "accessors" : [
        {
            "bufferView" : 0,
            "componentType" : 5126,
            "count" : 230,
            "max" : [
                0.08025555312633514,
                0.04041310027241707,
                0.047758571803569794
            ],
            "min" : [
                -0.031359728425741196,
                -0.0012726313434541225,
                -0.047758571803569794
            ],
            "type" : "VEC3"
        },
        {
            "bufferView" : 1,
            "componentType" : 5126,
            "count" : 230,
            "type" : "VEC3"
        },
        {
            "bufferView" : 2,
            "componentType" : 5126,
            "count" : 230,
            "type" : "VEC2"
        },
        {
            "bufferView" : 3,
            "componentType" : 5123,
            "count" : 390,
            "type" : "SCALAR"
        }
    ],
    "bufferViews" : [
        {
            "buffer" : 0,
            "byteLength" : 2760,
            "byteOffset" : 0
        },
        {
            "buffer" : 0,
            "byteLength" : 2760,
            "byteOffset" : 2760
        },
        {
            "buffer" : 0,
            "byteLength" : 1840,
            "byteOffset" : 5520
        },
        {
            "buffer" : 0,
            "byteLength" : 780,
            "byteOffset" : 7360
        },
        {
            "buffer" : 0,
            "byteLength" : 265,
            "byteOffset" : 8140
        }
    ],
    "buffers" : [
        {
            "byteLength" : 8408,
            "uri" : "data:application/octet-stream;base64,"
        }
    ]
}
