{
    "asset" : {
        "generator" : "Khronos glTF Blender I/O v1.2.75",
        "version" : "2.0"
    },
    "scene" : 0,
    "scenes" : [
        {
            "name" : "Scene",
            "nodes" : [
                0
            ]
        }
    ],
    "nodes" : [
        {
            "mesh" : 0,
            "name" : "Cylinder.001"
        }
    ],
    "materials" : [
        {
            "doubleSided" : true,
            "emissiveFactor" : [
                0,
                0,
                0
            ],
            "name" : "Material.003",
            "pbrMetallicRoughness" : {
                "baseColorTexture" : {
                    "index" : 0,
                    "texCoord" : 0
                },
                "metallicFactor" : 0,
                "roughnessFactor" : 0.5
            }
        }
    ],
    "meshes" : [
        {
            "name" : "Cylinder.002",
            "primitives" : [
                {
                    "attributes" : {
                        "POSITION" : 0,
                        "NORMAL" : 1,
                        "TEXCOORD_0" : 2
                    },
                    "indices" : 3,
                    "material" : 0
                }
            ]
        }
    ],
    "textures" : [
        {
            "source" : 0
        }
    ],
    "images" : [
        {
            "bufferView" : 4,
            "mimeType" : "image/png",
            "name" : "colortex"
        }
    ],
    "accessors" : [
        {
            "bufferView" : 0,
            "componentType" : 5126,
            "count" : 422,
            "max" : [
                0.13132773339748383,
                0.047912806272506714,
                0.05097706615924835
            ],
            "min" : [
                -0.10334005951881409,
                -0.04604065790772438,
                -0.0496910959482193
            ],
            "type" : "VEC3"
        },
        {
            "bufferView" : 1,
            "componentType" : 5126,
            "count" : 422,
            "type" : "VEC3"
        },
        {
            "bufferView" : 2,
            "componentType" : 5126,
            "count" : 422,
            "type" : "VEC2"
        },
        {
            "bufferView" : 3,
            "componentType" : 5123,
            "count" : 612,
            "type" : "SCALAR"
        }
    ],
    "bufferViews" : [
        {
            "buffer" : 0,
            "byteLength" : 5064,
            "byteOffset" : 0
        },
        {
            "buffer" : 0,
            "byteLength" : 5064,
            "byteOffset" : 5064
        },
        {
            "buffer" : 0,
            "byteLength" : 3376,
            "byteOffset" : 10128
        },
        {
            "buffer" : 0,
            "byteLength" : 1224,
            "byteOffset" : 13504
        },
        {
            "buffer" : 0,
            "byteLength" : 265,
            "byteOffset" : 14728
        }
    ],
    "buffers" : [
        {
            "byteLength" : 14996,
            "uri" : "data:application/octet-stream;base64,"
        }
    ]
}
