{
    "asset" : {
        "generator" : "Khronos glTF Blender I/O v1.2.75",
        "version" : "2.0"
    },
    "scene" : 0,
    "scenes" : [
        {
            "name" : "Scene",
            "nodes" : [
                0
            ]
        }
    ],
    "nodes" : [
        {
            "mesh" : 0,
            "name" : "Cylinder"
        }
    ],
    "materials" : [
        {
            "emissiveFactor" : [
                0,
                0,
                0
            ],
            "name" : "Material.002",
            "pbrMetallicRoughness" : {
                "baseColorTexture" : {
                    "index" : 0,
                    "texCoord" : 0
                },
                "metallicFactor" : 0,
                "roughnessFactor" : 0.5
            }
        }
    ],
    "meshes" : [
        {
            "name" : "Cylinder",
            "primitives" : [
                {
                    "attributes" : {
                        "POSITION" : 0,
                        "NORMAL" : 1,
                        "TEXCOORD_0" : 2
                    },
                    "indices" : 3,
                    "material" : 0
                }
            ]
        }
    ],
    "textures" : [
        {
            "source" : 0
        }
    ],
    "images" : [
        {
            "bufferView" : 4,
            "mimeType" : "image/png",
            "name" : "colortex"
        }
    ],
    "accessors" : [
        {
            "bufferView" : 0,
            "componentType" : 5126,
            "count" : 2838,
            "max" : [
                0.06320030987262726,
                0.005070516373962164,
                0.0280221626162529
            ],
            "min" : [
                -0.07734768092632294,
                -0.003959684632718563,
                -0.03290380537509918
            ],
            "type" : "VEC3"
        },
        {
            "bufferView" : 1,
            "componentType" : 5126,
            "count" : 2838,
            "type" : "VEC3"
        },
        {
            "bufferView" : 2,
            "componentType" : 5126,
            "count" : 2838,
            "type" : "VEC2"
        },
        {
            "bufferView" : 3,
            "componentType" : 5123,
            "count" : 3918,
            "type" : "SCALAR"
        }
    ],
    "bufferViews" : [
        {
            "buffer" : 0,
            "byteLength" : 34056,
            "byteOffset" : 0
        },
        {
            "buffer" : 0,
            "byteLength" : 34056,
            "byteOffset" : 34056
        },
        {
            "buffer" : 0,
            "byteLength" : 22704,
            "byteOffset" : 68112
        },
        {
            "buffer" : 0,
            "byteLength" : 7836,
            "byteOffset" : 90816
        },
        {
            "buffer" : 0,
            "byteLength" : 265,
            "byteOffset" : 98652
        }
    ],
    "buffers" : [
        {
            "byteLength" : 98920,
            "uri" : "data:application/octet-stream;base64,"
        }
    ]
}
