{
    "asset" : {
        "generator" : "Khronos glTF Blender I/O v1.2.75",
        "version" : "2.0"
    },
    "scene" : 0,
    "scenes" : [
        {
            "name" : "Scene",
            "nodes" : [
                0
            ]
        }
    ],
    "nodes" : [
        {
            "mesh" : 0,
            "name" : "Cylinder.001"
        }
    ],
    "materials" : [
        {
            "emissiveFactor" : [
                0,
                0,
                0
            ],
            "name" : "Material.002",
            "pbrMetallicRoughness" : {
                "baseColorTexture" : {
                    "index" : 0,
                    "texCoord" : 0
                },
                "metallicFactor" : 0,
                "roughnessFactor" : 0.5
            }
        },
        {
            "doubleSided" : true,
            "emissiveFactor" : [
                0,
                0,
                0
            ],
            "name" : "Material.001",
            "pbrMetallicRoughness" : {
                "baseColorTexture" : {
                    "index" : 1,
                    "texCoord" : 0
                },
                "metallicFactor" : 0,
                "roughnessFactor" : 0.5
            }
        }
    ],
    "meshes" : [
        {
            "name" : "Cylinder.001",
            "primitives" : [
                {
                    "attributes" : {
                        "POSITION" : 0,
                        "NORMAL" : 1,
                        "TEXCOORD_0" : 2
                    },
                    "indices" : 3,
                    "material" : 0
                },
                {
                    "attributes" : {
                        "POSITION" : 4,
                        "NORMAL" : 5,
                        "TEXCOORD_0" : 6
                    },
                    "indices" : 7,
                    "material" : 1
                }
            ]
        }
    ],
    "textures" : [
        {
            "source" : 0
        },
        {
            "source" : 1
        }
    ],
    "images" : [
        {
            "bufferView" : 4,
            "mimeType" : "image/png",
            "name" : "colortex.png"
        },
        {
            "bufferView" : 9,
            "mimeType" : "image/png",
            "name" : "colortex"
        }
    ],
    "accessors" : [
        {
            "bufferView" : 0,
            "componentType" : 5126,
            "count" : 239,
            "max" : [
                0.010500670410692692,
                0.03333057463169098,
                0.025363102555274963
            ],
            "min" : [
                -0.0022881999611854553,
                -0.024708131328225136,
                -0.027679605409502983
            ],
            "type" : "VEC3"
        },
        {
            "bufferView" : 1,
            "componentType" : 5126,
            "count" : 239,
            "type" : "VEC3"
        },
        {
            "bufferView" : 2,
            "componentType" : 5126,
            "count" : 239,
            "type" : "VEC2"
        },
        {
            "bufferView" : 3,
            "componentType" : 5123,
            "count" : 402,
            "type" : "SCALAR"
        },
        {
            "bufferView" : 5,
            "componentType" : 5126,
            "count" : 219,
            "max" : [
                0.007691238075494766,
                0.03333057463169098,
                0.025363102555274963
            ],
            "min" : [
                -0.01690635085105896,
                -0.024708131328225136,
                -0.027679605409502983
            ],
            "type" : "VEC3"
        },
        {
            "bufferView" : 6,
            "componentType" : 5126,
            "count" : 219,
            "type" : "VEC3"
        },
        {
            "bufferView" : 7,
            "componentType" : 5126,
            "count" : 219,
            "type" : "VEC2"
        },
        {
            "bufferView" : 8,
            "componentType" : 5123,
            "count" : 261,
            "type" : "SCALAR"
        }
    ],
    "bufferViews" : [
        {
            "buffer" : 0,
            "byteLength" : 2868,
            "byteOffset" : 0
        },
        {
            "buffer" : 0,
            "byteLength" : 2868,
            "byteOffset" : 2868
        },
        {
            "buffer" : 0,
            "byteLength" : 1912,
            "byteOffset" : 5736
        },
        {
            "buffer" : 0,
            "byteLength" : 804,
            "byteOffset" : 7648
        },
        {
            "buffer" : 0,
            "byteLength" : 265,
            "byteOffset" : 8452
        },
        {
            "buffer" : 0,
            "byteLength" : 2628,
            "byteOffset" : 8720
        },
        {
            "buffer" : 0,
            "byteLength" : 2628,
            "byteOffset" : 11348
        },
        {
            "buffer" : 0,
            "byteLength" : 1752,
            "byteOffset" : 13976
        },
        {
            "buffer" : 0,
            "byteLength" : 522,
            "byteOffset" : 15728
        },
        {
            "buffer" : 0,
            "byteLength" : 265,
            "byteOffset" : 16252
        }
    ],
    "buffers" : [
        {
            "byteLength" : 16520,
            "uri" : "data:application/octet-stream;base64,"
        }
    ]
}
