{
    "asset" : {
        "generator" : "Khronos glTF Blender I/O v1.2.75",
        "version" : "2.0"
    },
    "scene" : 0,
    "scenes" : [
        {
            "name" : "Scene",
            "nodes" : [
                0
            ]
        }
    ],
    "nodes" : [
        {
            "mesh" : 0,
            "name" : "Cylinder"
        }
    ],
    "materials" : [
        {
            "doubleSided" : true,
            "emissiveFactor" : [
                0,
                0,
                0
            ],
            "name" : "Material",
            "pbrMetallicRoughness" : {
                "baseColorTexture" : {
                    "index" : 0,
                    "texCoord" : 0
                },
                "metallicFactor" : 0,
                "roughnessFactor" : 0.5
            }
        }
    ],
    "meshes" : [
        {
            "name" : "Cylinder",
            "primitives" : [
                {
                    "attributes" : {
                        "POSITION" : 0,
                        "NORMAL" : 1,
                        "TEXCOORD_0" : 2
                    },
                    "indices" : 3,
                    "material" : 0
                }
            ]
        }
    ],
    "textures" : [
        {
            "source" : 0
        }
    ],
    "images" : [
        {
            "bufferView" : 4,
            "mimeType" : "image/png",
            "name" : "colortex"
        }
    ],
    "accessors" : [
        {
            "bufferView" : 0,
            "componentType" : 5126,
            "count" : 542,
            "max" : [
                0.04461663216352463,
                0.03618411347270012,
                0.04488975554704666
            ],
            "min" : [
                -0.04528697580099106,
                -0.04410757124423981,
                -0.044877562671899796
            ],
            "type" : "VEC3"
        },
        {
            "bufferView" : 1,
            "componentType" : 5126,
            "count" : 542,
            "type" : "VEC3"
        },
        {
            "bufferView" : 2,
            "componentType" : 5126,
            "count" : 542,
            "type" : "VEC2"
        },
        {
            "bufferView" : 3,
            "componentType" : 5123,
            "count" : 828,
            "type" : "SCALAR"
        }
    ],
    "bufferViews" : [
        {
            "buffer" : 0,
            "byteLength" : 6504,
            "byteOffset" : 0
        },
        {
            "buffer" : 0,
            "byteLength" : 6504,
            "byteOffset" : 6504
        },
        {
            "buffer" : 0,
            "byteLength" : 4336,
            "byteOffset" : 13008
        },
        {
            "buffer" : 0,
            "byteLength" : 1656,
            "byteOffset" : 17344
        },
        {
            "buffer" : 0,
            "byteLength" : 265,
            "byteOffset" : 19000
        }
    ],
    "buffers" : [
        {
            "byteLength" : 19268,
            "uri" : "data:application/octet-stream;base64,"
        }
    ]
}
