{
    "asset" : {
        "generator" : "Khronos glTF Blender I/O v1.2.75",
        "version" : "2.0"
    },
    "scene" : 0,
    "scenes" : [
        {
            "name" : "Scene",
            "nodes" : [
                0
            ]
        }
    ],
    "nodes" : [
        {
            "mesh" : 0,
            "name" : "Cylinder"
        }
    ],
    "materials" : [
        {
            "doubleSided" : true,
            "emissiveFactor" : [
                0,
                0,
                0
            ],
            "name" : "Material",
            "pbrMetallicRoughness" : {
                "baseColorTexture" : {
                    "index" : 0,
                    "texCoord" : 0
                },
                "metallicFactor" : 0,
                "roughnessFactor" : 0.5
            }
        }
    ],
    "meshes" : [
        {
            "name" : "Cylinder",
            "primitives" : [
                {
                    "attributes" : {
                        "POSITION" : 0,
                        "NORMAL" : 1,
                        "TEXCOORD_0" : 2
                    },
                    "indices" : 3,
                    "material" : 0
                }
            ]
        }
    ],
    "textures" : [
        {
            "source" : 0
        }
    ],
    "images" : [
        {
            "bufferView" : 4,
            "mimeType" : "image/png",
            "name" : "colortex"
        }
    ],
    "accessors" : [
        {
            "bufferView" : 0,
            "componentType" : 5126,
            "count" : 223,
            "max" : [
                0.04448144882917404,
                0.021681617945432663,
                0.029190560802817345
            ],
            "min" : [
                -0.04448145255446434,
                -0.025808624923229218,
                -0.034627292305231094
            ],
            "type" : "VEC3"
        },
        {
            "bufferView" : 1,
            "componentType" : 5126,
            "count" : 223,
            "type" : "VEC3"
        },
        {
            "bufferView" : 2,
            "componentType" : 5126,
            "count" : 223,
            "type" : "VEC2"
        },
        {
            "bufferView" : 3,
            "componentType" : 5123,
            "count" : 363,
            "type" : "SCALAR"
        }
    ],
    "bufferViews" : [
        {
            "buffer" : 0,
            "byteLength" : 2676,
            "byteOffset" : 0
        },
        {
            "buffer" : 0,
            "byteLength" : 2676,
            "byteOffset" : 2676
        },
        {
            "buffer" : 0,
            "byteLength" : 1784,
            "byteOffset" : 5352
        },
        {
            "buffer" : 0,
            "byteLength" : 726,
            "byteOffset" : 7136
        },
        {
            "buffer" : 0,
            "byteLength" : 265,
            "byteOffset" : 7864
        }
    ],
    "buffers" : [
        {
            "byteLength" : 8132,
            "uri" : "data:application/octet-stream;base64,"
        }
    ]
}
