{
    "asset" : {
        "generator" : "Khronos glTF Blender I/O v1.2.75",
        "version" : "2.0"
    },
    "scene" : 0,
    "scenes" : [
        {
            "name" : "Scene",
            "nodes" : [
                0
            ]
        }
    ],
    "nodes" : [
        {
            "mesh" : 0,
            "name" : "Cylinder.001"
        }
    ],
    "materials" : [
        {
            "emissiveFactor" : [
                0,
                0,
                0
            ],
            "name" : "Material.001",
            "pbrMetallicRoughness" : {
                "baseColorTexture" : {
                    "index" : 0,
                    "texCoord" : 0
                },
                "metallicFactor" : 0,
                "roughnessFactor" : 0.5
            }
        }
    ],
    "meshes" : [
        {
            "name" : "Cylinder.001",
            "primitives" : [
                {
                    "attributes" : {
                        "POSITION" : 0,
                        "NORMAL" : 1,
                        "TEXCOORD_0" : 2
                    },
                    "indices" : 3,
                    "material" : 0
                }
            ]
        }
    ],
    "textures" : [
        {
            "source" : 0
        }
    ],
    "images" : [
        {
            "bufferView" : 4,
            "mimeType" : "image/png",
            "name" : "colortex"
        }
    ],
    "accessors" : [
        {
            "bufferView" : 0,
            "componentType" : 5126,
            "count" : 376,
            "max" : [
                0.03182196244597435,
                0.015445083379745483,
                0.032355327159166336
            ],
            "min" : [
                -0.03180750831961632,
                -0.017820220440626144,
                -0.04243350774049759
            ],
            "type" : "VEC3"
        },
        {
            "bufferView" : 1,
            "componentType" : 5126,
            "count" : 376,
            "type" : "VEC3"
        },
        {
            "bufferView" : 2,
            "componentType" : 5126,
            "count" : 376,
            "type" : "VEC2"
        },
        {
            "bufferView" : 3,
            "componentType" : 5123,
            "count" : 624,
            "type" : "SCALAR"
        }
    ],
    "bufferViews" : [
        {
            "buffer" : 0,
            "byteLength" : 4512,
            "byteOffset" : 0
        },
        {
            "buffer" : 0,
            "byteLength" : 4512,
            "byteOffset" : 4512
        },
        {
            "buffer" : 0,
            "byteLength" : 3008,
            "byteOffset" : 9024
        },
        {
            "buffer" : 0,
            "byteLength" : 1248,
            "byteOffset" : 12032
        },
        {
            "buffer" : 0,
            "byteLength" : 265,
            "byteOffset" : 13280
        }
    ],
    "buffers" : [
        {
            "byteLength" : 13548,
            "uri" : "data:application/octet-stream;base64,"
        }
    ]
}
