{
    "asset" : {
        "generator" : "Khronos glTF Blender I/O v1.2.75",
        "version" : "2.0"
    },
    "scene" : 0,
    "scenes" : [
        {
            "name" : "Scene",
            "nodes" : [
                0
            ]
        }
    ],
    "nodes" : [
        {
            "mesh" : 0,
            "name" : "Cylinder"
        }
    ],
    "materials" : [
        {
            "emissiveFactor" : [
                0,
                0,
                0
            ],
            "name" : "Material.001",
            "pbrMetallicRoughness" : {
                "baseColorTexture" : {
                    "index" : 0,
                    "texCoord" : 0
                },
                "metallicFactor" : 0,
                "roughnessFactor" : 0.5
            }
        }
    ],
    "meshes" : [
        {
            "name" : "Cylinder",
            "primitives" : [
                {
                    "attributes" : {
                        "POSITION" : 0,
                        "NORMAL" : 1,
                        "TEXCOORD_0" : 2
                    },
                    "indices" : 3,
                    "material" : 0
                }
            ]
        }
    ],
    "textures" : [
        {
            "source" : 0
        }
    ],
    "images" : [
        {
            "bufferView" : 4,
            "mimeType" : "image/png",
            "name" : "colortex"
        }
    ],
    "accessors" : [
        {
            "bufferView" : 0,
            "componentType" : 5126,
            "count" : 588,
            "max" : [
                0.014005322940647602,
                0.01220166590064764,
                0.003392803017050028
            ],
            "min" : [
                -0.01530451513826847,
                -0.013141770847141743,
                -0.0037029075901955366
            ],
            "type" : "VEC3"
        },
        {
            "bufferView" : 1,
            "componentType" : 5126,
            "count" : 588,
            "type" : "VEC3"
        },
        {
            "bufferView" : 2,
            "componentType" : 5126,
            "count" : 588,
            "type" : "VEC2"
        },
        {
            "bufferView" : 3,
            "componentType" : 5123,
            "count" : 942,
            "type" : "SCALAR"
        }
    ],
    "bufferViews" : [
        {
            "buffer" : 0,
            "byteLength" : 7056,
            "byteOffset" : 0
        },
        {
            "buffer" : 0,
            "byteLength" : 7056,
            "byteOffset" : 7056
        },
        {
            "buffer" : 0,
            "byteLength" : 4704,
            "byteOffset" : 14112
        },
        {
            "buffer" : 0,
            "byteLength" : 1884,
            "byteOffset" : 18816
        },
        {
            "buffer" : 0,
            "byteLength" : 265,
            "byteOffset" : 20700
        }
    ],
    "buffers" : [
        {
            "byteLength" : 20968,
            "uri" : "data:application/octet-stream;base64,"
        }
    ]
}
