{
    "asset" : {
        "generator" : "Khronos glTF Blender I/O v1.2.75",
        "version" : "2.0"
    },
    "scene" : 0,
    "scenes" : [
        {
            "name" : "Scene",
            "nodes" : [
                0
            ]
        }
    ],
    "nodes" : [
        {
            "mesh" : 0,
            "name" : "Cylinder"
        }
    ],
    "materials" : [
        {
            "emissiveFactor" : [
                0,
                0,
                0
            ],
            "name" : "Material.001",
            "pbrMetallicRoughness" : {
                "baseColorTexture" : {
                    "index" : 0,
                    "texCoord" : 0
                },
                "metallicFactor" : 0,
                "roughnessFactor" : 0.5
            }
        }
    ],
    "meshes" : [
        {
            "name" : "Cylinder",
            "primitives" : [
                {
                    "attributes" : {
                        "POSITION" : 0,
                        "NORMAL" : 1,
                        "TEXCOORD_0" : 2
                    },
                    "indices" : 3,
                    "material" : 0
                }
            ]
        }
    ],
    "textures" : [
        {
            "source" : 0
        }
    ],
    "images" : [
        {
            "bufferView" : 4,
            "mimeType" : "image/png",
            "name" : "colortex"
        }
    ],
    "accessors" : [
        {
            "bufferView" : 0,
            "componentType" : 5126,
            "count" : 128,
            "max" : [
                0.05385608971118927,
                0.06924275308847427,
                0.05385608971118927
            ],
            "min" : [
                -0.05385608226060867,
                -0.05334361642599106,
                -0.05385608971118927
            ],
            "type" : "VEC3"
        },
        {
            "bufferView" : 1,
            "componentType" : 5126,
            "count" : 128,
            "type" : "VEC3"
        },
        {
            "bufferView" : 2,
            "componentType" : 5126,
            "count" : 128,
            "type" : "VEC2"
        },
        {
            "bufferView" : 3,
            "componentType" : 5123,
            "count" : 276,
            "type" : "SCALAR"
        }
    ],
    "bufferViews" : [
        {
            "buffer" : 0,
            "byteLength" : 1536,
            "byteOffset" : 0
        },
        {
            "buffer" : 0,
            "byteLength" : 1536,
            "byteOffset" : 1536
        },
        {
            "buffer" : 0,
            "byteLength" : 1024,
            "byteOffset" : 3072
        },
        {
            "buffer" : 0,
            "byteLength" : 552,
            "byteOffset" : 4096
        },
        {
            "buffer" : 0,
            "byteLength" : 265,
            "byteOffset" : 4648
        }
    ],
    "buffers" : [
        {
            "byteLength" : 4916,
            "uri" : "data:application/octet-stream;base64,"
        }
    ]
}
