{
    "asset" : {
        "generator" : "Khronos glTF Blender I/O v1.2.75",
        "version" : "2.0"
    },
    "scene" : 0,
    "scenes" : [
        {
            "name" : "Scene",
            "nodes" : [
                0
            ]
        }
    ],
    "nodes" : [
        {
            "mesh" : 0,
            "name" : "Cylinder"
        }
    ],
    "materials" : [
        {
            "doubleSided" : true,
            "emissiveFactor" : [
                0,
                0,
                0
            ],
            "name" : "Material",
            "pbrMetallicRoughness" : {
                "baseColorTexture" : {
                    "index" : 0,
                    "texCoord" : 0
                },
                "metallicFactor" : 0,
                "roughnessFactor" : 0.5
            }
        }
    ],
    "meshes" : [
        {
            "name" : "Cylinder",
            "primitives" : [
                {
                    "attributes" : {
                        "POSITION" : 0,
                        "NORMAL" : 1,
                        "TEXCOORD_0" : 2
                    },
                    "indices" : 3,
                    "material" : 0
                }
            ]
        }
    ],
    "textures" : [
        {
            "source" : 0
        }
    ],
    "images" : [
        {
            "bufferView" : 4,
            "mimeType" : "image/png",
            "name" : "colortex"
        }
    ],
    "accessors" : [
        {
            "bufferView" : 0,
            "componentType" : 5126,
            "count" : 576,
            "max" : [
                0.10236334055662155,
                0.09356864541769028,
                0.10155871510505676
            ],
            "min" : [
                -0.10236335545778275,
                -0.08252981305122375,
                -0.10316798090934753
            ],
            "type" : "VEC3"
        },
        {
            "bufferView" : 1,
            "componentType" : 5126,
            "count" : 576,
            "type" : "VEC3"
        },
        {
            "bufferView" : 2,
            "componentType" : 5126,
            "count" : 576,
            "type" : "VEC2"
        },
        {
            "bufferView" : 3,
            "componentType" : 5123,
            "count" : 900,
            "type" : "SCALAR"
        }
    ],
    "bufferViews" : [
        {
            "buffer" : 0,
            "byteLength" : 6912,
            "byteOffset" : 0
        },
        {
            "buffer" : 0,
            "byteLength" : 6912,
            "byteOffset" : 6912
        },
        {
            "buffer" : 0,
            "byteLength" : 4608,
            "byteOffset" : 13824
        },
        {
            "buffer" : 0,
            "byteLength" : 1800,
            "byteOffset" : 18432
        },
        {
            "buffer" : 0,
            "byteLength" : 265,
            "byteOffset" : 20232
        }
    ],
    "buffers" : [
        {
            "byteLength" : 20500,
            "uri" : "data:application/octet-stream;base64,"
        }
    ]
}
