{
    "asset" : {
        "generator" : "Khronos glTF Blender I/O v1.2.75",
        "version" : "2.0"
    },
    "scene" : 0,
    "scenes" : [
        {
            "name" : "Scene",
            "nodes" : [
                0
            ]
        }
    ],
    "nodes" : [
        {
            "mesh" : 0,
            "name" : "Cylinder"
        }
    ],
    "materials" : [
        {
            "doubleSided" : true,
            "emissiveFactor" : [
                0,
                0,
                0
            ],
            "name" : "Material.001",
            "pbrMetallicRoughness" : {
                "baseColorTexture" : {
                    "index" : 0,
                    "texCoord" : 0
                },
                "metallicFactor" : 0,
                "roughnessFactor" : 0.5
            }
        }
    ],
    "meshes" : [
        {
            "name" : "Cylinder",
            "primitives" : [
                {
                    "attributes" : {
                        "POSITION" : 0,
                        "NORMAL" : 1,
                        "TEXCOORD_0" : 2
                    },
                    "indices" : 3,
                    "material" : 0
                }
            ]
        }
    ],
    "textures" : [
        {
            "source" : 0
        }
    ],
    "images" : [
        {
            "bufferView" : 4,
            "mimeType" : "image/png",
            "name" : "colortex"
        }
    ],
    "accessors" : [
        {
            "bufferView" : 0,
            "componentType" : 5126,
            "count" : 904,
            "max" : [
                0.02919582463800907,
                0.11740539968013763,
                0.029185853898525238
            ],
            "min" : [
                -0.03017040155827999,
                -0.0555403009057045,
                -0.030180372297763824
            ],
            "type" : "VEC3"
        },
        {
            "bufferView" : 1,
            "componentType" : 5126,
            "count" : 904,
            "type" : "VEC3"
        },
        {
            "bufferView" : 2,
            "componentType" : 5126,
            "count" : 904,
            "type" : "VEC2"
        },
        {
            "bufferView" : 3,
            "componentType" : 5123,
            "count" : 1338,
            "type" : "SCALAR"
        }
    ],
    "bufferViews" : [
        {
            "buffer" : 0,
            "byteLength" : 10848,
            "byteOffset" : 0
        },
        {
            "buffer" : 0,
            "byteLength" : 10848,
            "byteOffset" : 10848
        },
        {
            "buffer" : 0,
            "byteLength" : 7232,
            "byteOffset" : 21696
        },
        {
            "buffer" : 0,
            "byteLength" : 2676,
            "byteOffset" : 28928
        },
        {
            "buffer" : 0,
            "byteLength" : 265,
            "byteOffset" : 31604
        }
    ],
    "buffers" : [
        {
            "byteLength" : 31872,
            "uri" : "data:application/octet-stream;base64,"
        }
    ]
}
