{
    "asset" : {
        "generator" : "Khronos glTF Blender I/O v1.2.75",
        "version" : "2.0"
    },
    "scene" : 0,
    "scenes" : [
        {
            "name" : "Scene",
            "nodes" : [
                0
            ]
        }
    ],
    "nodes" : [
        {
            "mesh" : 0,
            "name" : "Cylinder"
        }
    ],
    "materials" : [
        {
            "emissiveFactor" : [
                0,
                0,
                0
            ],
            "name" : "Material.001",
            "pbrMetallicRoughness" : {
                "baseColorTexture" : {
                    "index" : 0,
                    "texCoord" : 0
                },
                "metallicFactor" : 0,
                "roughnessFactor" : 0.5
            }
        }
    ],
    "meshes" : [
        {
            "name" : "Cylinder",
            "primitives" : [
                {
                    "attributes" : {
                        "POSITION" : 0,
                        "NORMAL" : 1,
                        "TEXCOORD_0" : 2
                    },
                    "indices" : 3,
                    "material" : 0
                }
            ]
        }
    ],
    "textures" : [
        {
            "source" : 0
        }
    ],
    "images" : [
        {
            "bufferView" : 4,
            "mimeType" : "image/png",
            "name" : "colortex"
        }
    ],
    "accessors" : [
        {
            "bufferView" : 0,
            "componentType" : 5126,
            "count" : 1007,
            "max" : [
                0.015608582645654678,
                0.01598859205842018,
                0.018123239278793335
            ],
            "min" : [
                -0.015731636434793472,
                -0.019655363634228706,
                -0.016712689772248268
            ],
            "type" : "VEC3"
        },
        {
            "bufferView" : 1,
            "componentType" : 5126,
            "count" : 1007,
            "type" : "VEC3"
        },
        {
            "bufferView" : 2,
            "componentType" : 5126,
            "count" : 1007,
            "type" : "VEC2"
        },
        {
            "bufferView" : 3,
            "componentType" : 5123,
            "count" : 1260,
            "type" : "SCALAR"
        }
    ],
    "bufferViews" : [
        {
            "buffer" : 0,
            "byteLength" : 12084,
            "byteOffset" : 0
        },
        {
            "buffer" : 0,
            "byteLength" : 12084,
            "byteOffset" : 12084
        },
        {
            "buffer" : 0,
            "byteLength" : 8056,
            "byteOffset" : 24168
        },
        {
            "buffer" : 0,
            "byteLength" : 2520,
            "byteOffset" : 32224
        },
        {
            "buffer" : 0,
            "byteLength" : 265,
            "byteOffset" : 34744
        }
    ],
    "buffers" : [
        {
            "byteLength" : 35012,
            "uri" : "data:application/octet-stream;base64,"
        }
    ]
}
