{
    "asset" : {
        "generator" : "Khronos glTF Blender I/O v1.2.75",
        "version" : "2.0"
    },
    "scene" : 0,
    "scenes" : [
        {
            "name" : "Scene",
            "nodes" : [
                0
            ]
        }
    ],
    "nodes" : [
        {
            "mesh" : 0,
            "name" : "Cylinder"
        }
    ],
    "materials" : [
        {
            "emissiveFactor" : [
                0,
                0,
                0
            ],
            "name" : "Material.003",
            "pbrMetallicRoughness" : {
                "baseColorTexture" : {
                    "index" : 0,
                    "texCoord" : 0
                },
                "metallicFactor" : 0,
                "roughnessFactor" : 0.5
            }
        }
    ],
    "meshes" : [
        {
            "name" : "Cylinder.002",
            "primitives" : [
                {
                    "attributes" : {
                        "POSITION" : 0,
                        "NORMAL" : 1,
                        "TEXCOORD_0" : 2
                    },
                    "indices" : 3,
                    "material" : 0
                }
            ]
        }
    ],
    "textures" : [
        {
            "source" : 0
        }
    ],
    "images" : [
        {
            "bufferView" : 4,
            "mimeType" : "image/png",
            "name" : "colortex"
        }
    ],
    "accessors" : [
        {
            "bufferView" : 0,
            "componentType" : 5126,
            "count" : 104,
            "max" : [
                0.007876292802393436,
                0.00639108382165432,
                0.007876291871070862
            ],
            "min" : [
                -0.007876290008425713,
                -0.006274090148508549,
                -0.007876291871070862
            ],
            "type" : "VEC3"
        },
        {
            "bufferView" : 1,
            "componentType" : 5126,
            "count" : 104,
            "type" : "VEC3"
        },
        {
            "bufferView" : 2,
            "componentType" : 5126,
            "count" : 104,
            "type" : "VEC2"
        },
        {
            "bufferView" : 3,
            "componentType" : 5123,
            "count" : 192,
            "type" : "SCALAR"
        }
    ],
    "bufferViews" : [
        {
            "buffer" : 0,
            "byteLength" : 1248,
            "byteOffset" : 0
        },
        {
            "buffer" : 0,
            "byteLength" : 1248,
            "byteOffset" : 1248
        },
        {
            "buffer" : 0,
            "byteLength" : 832,
            "byteOffset" : 2496
        },
        {
            "buffer" : 0,
            "byteLength" : 384,
            "byteOffset" : 3328
        },
        {
            "buffer" : 0,
            "byteLength" : 265,
            "byteOffset" : 3712
        }
    ],
    "buffers" : [
        {
            "byteLength" : 3980,
            "uri" : "data:application/octet-stream;base64,"
        }
    ]
}
