{
    "asset" : {
        "generator" : "Khronos glTF Blender I/O v1.2.75",
        "version" : "2.0"
    },
    "scene" : 0,
    "scenes" : [
        {
            "name" : "Scene",
            "nodes" : [
                0
            ]
        }
    ],
    "nodes" : [
        {
            "mesh" : 0,
            "name" : "Cylinder.001"
        }
    ],
    "materials" : [
        {
            "emissiveFactor" : [
                0,
                0,
                0
            ],
            "name" : "Material.001",
            "pbrMetallicRoughness" : {
                "baseColorTexture" : {
                    "index" : 0,
                    "texCoord" : 0
                },
                "metallicFactor" : 0,
                "roughnessFactor" : 0.5
            }
        }
    ],
    "meshes" : [
        {
            "name" : "Cylinder.001",
            "primitives" : [
                {
                    "attributes" : {
                        "POSITION" : 0,
                        "NORMAL" : 1,
                        "TEXCOORD_0" : 2
                    },
                    "indices" : 3,
                    "material" : 0
                }
            ]
        }
    ],
    "textures" : [
        {
            "source" : 0
        }
    ],
    "images" : [
        {
            "bufferView" : 4,
            "mimeType" : "image/png",
            "name" : "colortex"
        }
    ],
    "accessors" : [
        {
            "bufferView" : 0,
            "componentType" : 5126,
            "count" : 377,
            "max" : [
                0.010758761316537857,
                0.0035749441012740135,
                0.01699312962591648
            ],
            "min" : [
                -0.010236349888145924,
                -0.0028419564478099346,
                -0.012725056149065495
            ],
            "type" : "VEC3"
        },
        {
            "bufferView" : 1,
            "componentType" : 5126,
            "count" : 377,
            "type" : "VEC3"
        },
        {
            "bufferView" : 2,
            "componentType" : 5126,
            "count" : 377,
            "type" : "VEC2"
        },
        {
            "bufferView" : 3,
            "componentType" : 5123,
            "count" : 582,
            "type" : "SCALAR"
        }
    ],
    "bufferViews" : [
        {
            "buffer" : 0,
            "byteLength" : 4524,
            "byteOffset" : 0
        },
        {
            "buffer" : 0,
            "byteLength" : 4524,
            "byteOffset" : 4524
        },
        {
            "buffer" : 0,
            "byteLength" : 3016,
            "byteOffset" : 9048
        },
        {
            "buffer" : 0,
            "byteLength" : 1164,
            "byteOffset" : 12064
        },
        {
            "buffer" : 0,
            "byteLength" : 265,
            "byteOffset" : 13228
        }
    ],
    "buffers" : [
        {
            "byteLength" : 13496,
            "uri" : "data:application/octet-stream;base64,"
        }
    ]
}
