{
    "asset" : {
        "generator" : "Khronos glTF Blender I/O v1.2.75",
        "version" : "2.0"
    },
    "scene" : 0,
    "scenes" : [
        {
            "name" : "Scene",
            "nodes" : [
                0
            ]
        }
    ],
    "nodes" : [
        {
            "mesh" : 0,
            "name" : "Cylinder.001"
        }
    ],
    "materials" : [
        {
            "emissiveFactor" : [
                0,
                0,
                0
            ],
            "name" : "Material.001",
            "pbrMetallicRoughness" : {
                "baseColorTexture" : {
                    "index" : 0,
                    "texCoord" : 0
                },
                "metallicFactor" : 0,
                "roughnessFactor" : 0.5
            }
        }
    ],
    "meshes" : [
        {
            "name" : "Cylinder.001",
            "primitives" : [
                {
                    "attributes" : {
                        "POSITION" : 0,
                        "NORMAL" : 1,
                        "TEXCOORD_0" : 2
                    },
                    "indices" : 3,
                    "material" : 0
                }
            ]
        }
    ],
    "textures" : [
        {
            "source" : 0
        }
    ],
    "images" : [
        {
            "bufferView" : 4,
            "mimeType" : "image/png",
            "name" : "colortex"
        }
    ],
    "accessors" : [
        {
            "bufferView" : 0,
            "componentType" : 5126,
            "count" : 652,
            "max" : [
                0.016241449862718582,
                0.015474880114197731,
                0.02365931309759617
            ],
            "min" : [
                -0.016241293400526047,
                -0.015474881045520306,
                -0.01973363384604454
            ],
            "type" : "VEC3"
        },
        {
            "bufferView" : 1,
            "componentType" : 5126,
            "count" : 652,
            "type" : "VEC3"
        },
        {
            "bufferView" : 2,
            "componentType" : 5126,
            "count" : 652,
            "type" : "VEC2"
        },
        {
            "bufferView" : 3,
            "componentType" : 5123,
            "count" : 1008,
            "type" : "SCALAR"
        }
    ],
    "bufferViews" : [
        {
            "buffer" : 0,
            "byteLength" : 7824,
            "byteOffset" : 0
        },
        {
            "buffer" : 0,
            "byteLength" : 7824,
            "byteOffset" : 7824
        },
        {
            "buffer" : 0,
            "byteLength" : 5216,
            "byteOffset" : 15648
        },
        {
            "buffer" : 0,
            "byteLength" : 2016,
            "byteOffset" : 20864
        },
        {
            "buffer" : 0,
            "byteLength" : 265,
            "byteOffset" : 22880
        }
    ],
    "buffers" : [
        {
            "byteLength" : 23148,
            "uri" : "data:application/octet-stream;base64,"
        }
    ]
}
